<?xml version="1.0" encoding="utf-8"?>
<!-- Generator: Adobe Illustrator 19.0.0, SVG Export Plug-In . SVG Version: 6.00 Build 0)  -->
<svg version="1.1" id="Layer_1" xmlns="http://www.w3.org/2000/svg" xmlns:xlink="http://www.w3.org/1999/xlink" x="0px" y="0px"
	 viewBox="0 0 24 24" style="enable-background:new 0 0 24 24;" xml:space="preserve">
<style type="text/css">
	.st0{fill:#EA2427;}
	.st1{clip-path:url(#SVGID_2_);fill:#FFFFFF;}
	.st2{clip-path:url(#SVGID_2_);fill:#CB2227;}
	.st3{fill:#CB2227;}
	.st4{fill:#FFFFFF;}
</style>
<g>
	<g>
		<path class="st0" d="M16.2,12l6.1,6.1c2.2-3.7,2.2-8.4,0-12.2L16.2,12z"/>
	</g>
	<g>
		<path class="st0" d="M7.8,12L1.7,5.9c-2.2,3.7-2.2,8.4,0,12.2L7.8,12z"/>
	</g>
	<g>
		<path class="st0" d="M12,7.8l6.1-6.1c-3.7-2.2-8.4-2.2-12.2,0L12,7.8z"/>
	</g>
	<g>
		<polygon class="st0" points="20.5,20.5 20.5,20.5 20.5,20.5 		"/>
	</g>
	<g>
		<polygon class="st0" points="3.5,20.5 3.5,20.5 3.5,20.5 		"/>
	</g>
	<g>
		<path class="st0" d="M12,16.2l-6.1,6.1c3.7,2.2,8.4,2.2,12.2,0L12,16.2z"/>
	</g>
</g>
<g>
	<defs>
		<circle id="SVGID_1_" cx="12" cy="12" r="12"/>
	</defs>
	<clipPath id="SVGID_2_">
		<use xlink:href="#SVGID_1_"  style="overflow:visible;"/>
	</clipPath>
	<polygon class="st1" points="22.6,18.4 16.2,12 22.6,5.6 18.4,1.4 12,7.8 5.6,1.4 1.4,5.6 7.8,12 1.4,18.4 5.6,22.6 12,16.2 
		18.4,22.6 	"/>
	<polygon class="st2" points="21.2,19.8 13.4,12 21.2,4.2 19.8,2.8 12,10.6 4.2,2.8 2.8,4.2 10.6,12 2.8,19.8 4.2,21.2 12,13.4 
		19.8,21.2 	"/>
</g>
<circle class="st3" cx="12" cy="12" r="10"/>
<circle class="st4" cx="12" cy="12" r="8"/>
<circle class="st0" cx="12" cy="12" r="7"/>
</svg>
